<svg xmlns="http://www.w3.org/2000/svg" width="247.601" height="16" viewBox="0 0 247.601 16">
  <g id="Grupo_23605" data-name="Grupo 23605" transform="translate(100 -5907)">
    <g id="Grupo_23603" data-name="Grupo 23603" transform="translate(-100 5907)">
      <path id="Caminho_7413" data-name="Caminho 7413" d="M82.511,0V15.978h4.261V9.971H95.1V6.456h-8.33V3.516H95.1V0Z" transform="translate(-49.507 0)" fill="#271718"/>
      <path id="Caminho_7412" data-name="Caminho 7412" d="M120.639,0V15.978h4.26V9.971h8.33V6.456H124.9V3.516h8.33V0Z" transform="translate(-72.383 0)" fill="#271718"/>
      <path id="Caminho_7411" data-name="Caminho 7411" d="M158.767,0V15.978H172.1V12.462h-9.182V9.694H172.1V6.285h-9.182V3.516H172.1V0Z" transform="translate(-95.26 0)" fill="#271718"/>
      <rect id="Retângulo_4362" data-name="Retângulo 4362" width="4.261" height="15.977" transform="translate(79.504)" fill="#271718"/>
      <path id="Caminho_7410" data-name="Caminho 7410" d="M231.106,0H226.87l.093,3.292.075,3.25.133,5.316-3.4-8.566a7.262,7.262,0,0,0-1.5-2.39,3.325,3.325,0,0,0-2.5-.9h-3.7V15.978h3.7V3.672l.021,0a.28.28,0,0,1,.23.105,1,1,0,0,1,.147.272l4.554,11.931h6.391V11.246l-.015.024Z" transform="translate(-129.637 0)" fill="#271718"/>
      <path id="Caminho_7405" data-name="Caminho 7405" d="M410.555,0h-.042a3.308,3.308,0,0,0-2.464.9,7.266,7.266,0,0,0-1.5,2.39l-1.79,4.349-1.79-4.349a7.26,7.26,0,0,0-1.5-2.39,3.308,3.308,0,0,0-2.464-.9h-3.742V15.979h3.7V3.673l.021,0a.281.281,0,0,1,.23.1,1.012,1.012,0,0,1,.147.272l2.954,7.655a1.51,1.51,0,0,0,1.408.966h2.067A1.508,1.508,0,0,0,407.2,11.7l2.954-7.655a1.013,1.013,0,0,1,.147-.272.276.276,0,0,1,.21-.1V15.979h3.7V0Z" transform="translate(-237.159 -0.001)" fill="#271718"/>
      <path id="Caminho_7407" data-name="Caminho 7407" d="M367.173,6.023V3.8a3.8,3.8,0,0,0-3.8-3.8h-11.6V15.978h3.76V3.282h7.344a1,1,0,0,1,1,1V5.547a1,1,0,0,1-1,1h-4.537a1.624,1.624,0,0,0-1.263,2.644l5.487,6.79h4.548l-4.958-6.152h1.221a3.8,3.8,0,0,0,3.8-3.8" transform="translate(-211.063 -0.001)" fill="#271718"/>
      <path id="Caminho_7408" data-name="Caminho 7408" d="M314.62,0h6.652V15.978H317.29V12.633h-6.6l-1.353,3.346h-3.956l5.414-13.4A4.136,4.136,0,0,1,314.62,0m-2.6,9.33h5.273V3.623h-1.522a2.392,2.392,0,0,0-1,.249,2.1,2.1,0,0,0-.88.821Z" transform="translate(-183.226 -0.001)" fill="#271718"/>
      <path id="Caminho_7406" data-name="Caminho 7406" d="M453.4,10.775,445.964,0h4.842L455,5.553c.161.246.418.254.519,0L457.76,0h4.487l-6.456,15.976H451.3Z" transform="translate(-267.578 -0.002)" fill="#271718"/>
      <path id="Caminho_7414" data-name="Caminho 7414" d="M45.361,0h6.652V15.978H48.031V12.633h-6.6l-1.353,3.346H36.117l5.414-13.4A4.136,4.136,0,0,1,45.361,0m-2.6,9.33h5.273V3.623H46.508a2.392,2.392,0,0,0-1,.249,2.1,2.1,0,0,0-.88.821Z" transform="translate(-21.67 -0.001)" fill="#271718"/>
      <path id="Caminho_7415" data-name="Caminho 7415" d="M1.938,14.192a6.5,6.5,0,0,0,2.407,1.363,10.648,10.648,0,0,0,3.345.479h4.078l1.42-3.515H8.009a3.844,3.844,0,0,1-2.79-.777,3.637,3.637,0,0,1-.746-2.567V6.917A3.71,3.71,0,0,1,5.2,4.35,3.652,3.652,0,0,1,7.9,3.572h8.9L18.224.057H7.69a10.647,10.647,0,0,0-3.345.48A6.51,6.51,0,0,0,1.938,1.9,5.662,5.662,0,0,0,.49,4.052,7.762,7.762,0,0,0,0,6.875V9.217a7.764,7.764,0,0,0,.49,2.823,5.658,5.658,0,0,0,1.448,2.151" transform="translate(0 -0.034)" fill="#271718"/>
      <path id="Caminho_7409" data-name="Caminho 7409" d="M271.758,12.463H264.48V9.694h8.4l1.377-3.408H264.48V3.516h10.893L276.793,0H260.326V15.978h10.012Z" transform="translate(-156.196 -0.001)" fill="#271718"/>
    </g>
    <path id="Caminho_7404" data-name="Caminho 7404" d="M537.333,16l-42.956-.05L500.847,0l41.181.05a2.188,2.188,0,0,1,2.037,3.007l-4.7,11.574A2.2,2.2,0,0,1,537.333,16" transform="translate(-396.626 5907)" fill="#fb637e"/>
    <g id="Grupo_23602" data-name="Grupo 23602" transform="translate(106.307 5908.273)">
      <path id="Caminho_7396" data-name="Caminho 7396" d="M515.766,14.889l2.286-10.784h1.079l-2.286,10.784Z" transform="translate(-515.766 -3.737)" fill="#fff"/>
      <path id="Caminho_7397" data-name="Caminho 7397" d="M528.472,11.345l-.752,3.582c-.4,1.94-1.029,2.735-2.564,2.735-1.406,0-2.184-.862-1.769-2.824l.794-3.774c.312-1.47.909-2.571,2.5-2.571,1.558,0,2.165,1.051,1.791,2.853m-3.195-.282-.841,3.944c-.254,1.22.147,1.727.834,1.727.657,0,1.042-.383,1.318-1.66l.83-3.87c.236-1.094.021-1.784-.844-1.784-.76,0-1.077.633-1.3,1.644" transform="translate(-520.272 -6.368)" fill="#fff"/>
      <path id="Caminho_7398" data-name="Caminho 7398" d="M537.418,8.844,535.5,17.85c-.264,1.261-.5,2.234-1.844,2.234a3.619,3.619,0,0,1-.776-.078l.215-.985a4.173,4.173,0,0,0,.469.041c.449,0,.612-.125.809-1.028l1.96-9.19Z" transform="translate(-526.038 -6.58)" fill="#fff"/>
      <path id="Caminho_7399" data-name="Caminho 7399" d="M545.656,8.844h1.079l-1.889,8.888h-1.079Z" transform="translate(-532.567 -6.579)" fill="#fff"/>
      <path id="Caminho_7400" data-name="Caminho 7400" d="M551.995,14.934l-.065.329c-.168.9.008,1.5.83,1.5.568,0,.9-.314,1.08-1.143a2.218,2.218,0,0,0-.788-2.407c-1.038-1-1.387-1.591-1.153-2.872a1.944,1.944,0,0,1,2.023-1.845c1.53,0,1.934,1.125,1.7,2.323l-.07.351h-1.024l.07-.421c.134-.808.012-1.35-.73-1.35-.458,0-.8.32-.93,1.08-.115.715-.008,1.1.762,1.839,1.219,1.184,1.512,1.894,1.209,3.37a2.117,2.117,0,0,1-2.223,1.978c-1.73,0-2.1-1.155-1.784-2.564l.035-.163Z" transform="translate(-536.786 -6.368)" fill="#fff"/>
      <path id="Caminho_7401" data-name="Caminho 7401" d="M564.51,5.447h1.015l.508-2.264h1.062l-.5,2.264h1.24l-.2.946h-1.24l-1.35,6.212c-.133.647-.041.946.507.946a3.3,3.3,0,0,0,.645-.07l-.191.866a3.25,3.25,0,0,1-.908.106c-.846,0-1.452-.356-1.169-1.67l1.38-6.39h-1Z" transform="translate(-544.621 -3.183)" fill="#fff"/>
      <path id="Caminho_7402" data-name="Caminho 7402" d="M575.926,15.761c-.1.5-.291,1.452-.337,1.76h-1.049c.029-.237.075-.551.128-.809a1.613,1.613,0,0,1-1.59.949c-1.285,0-1.557-1.238-1.27-2.606.405-1.907,1.406-2.5,3.465-2.834l.351-.053.3-1.4c.2-.906-.008-1.384-.709-1.384-.728,0-.9.563-1.116,1.436l-.047.185h-1.062l.024-.112c.245-1.167.589-2.4,2.319-2.4,1.424,0,1.957.846,1.676,2.172Zm-.482-2.69-.331.052c-1.266.238-1.936.62-2.232,1.929-.2.929-.073,1.64.676,1.64.823,0,1.3-.827,1.642-2.5Z" transform="translate(-549.328 -6.369)" fill="#fff"/>
      <path id="Caminho_7403" data-name="Caminho 7403" d="M586.525,14.934l-.065.329c-.168.9.008,1.5.83,1.5.568,0,.9-.314,1.08-1.143a2.218,2.218,0,0,0-.788-2.407c-1.038-1-1.387-1.591-1.153-2.872a1.944,1.944,0,0,1,2.023-1.845c1.53,0,1.934,1.125,1.7,2.323l-.07.351h-1.024l.07-.421c.134-.808.012-1.35-.73-1.35-.458,0-.8.32-.93,1.08-.115.715-.008,1.1.762,1.839,1.219,1.184,1.512,1.894,1.209,3.37a2.117,2.117,0,0,1-2.223,1.978c-1.73,0-2.1-1.155-1.784-2.564l.035-.163Z" transform="translate(-557.504 -6.368)" fill="#fff"/>
    </g>
  </g>
</svg>
